{
  "accessors": [
    {
      "bufferView": 2,
      "componentType": 5126,
      "count": 3601,
      "max": [
        3.1426000595092773,
        2.0585429668426514,
        0.17366699874401093
      ],
      "min": [
        -3.1455700397491455,
        -5.212368011474609,
        -1.2397589683532715
      ],
      "type": "VEC3"
    },
    {
      "bufferView": 2,
      "byteOffset": 43212,
      "componentType": 5126,
      "count": 3601,
      "max": [
        0.9999969005584717,
        0.9999998807907104,
        0.9999967813491821
      ],
      "min": [
        -0.9999969005584717,
        -0.9999998807907104,
        -0.9999964237213135
      ],
      "type": "VEC3"
    },
    {
      "bufferView": 3,
      "componentType": 5126,
      "count": 3601,
      "max": [
        1.0,
        0.9999998807907104,
        0.9999998211860657,
        1.0
      ],
      "min": [
        -1.0,
        -0.9999998807907104,
        -0.9999995827674866,
        -1.0
      ],
      "type": "VEC4"
    },
    {
      "bufferView": 1,
      "componentType": 5126,
      "count": 3601,
      "max": [
        0.9987999796867371,
        0.9979000091552734
      ],
      "min": [
        0.0,
        0.0
      ],
      "type": "VEC2"
    },
    {
      "bufferView": 0,
      "componentType": 5125,
      "count": 8316,
      "type": "SCALAR"
    },
    {
      "bufferView": 2,
      "byteOffset": 86424,
      "componentType": 5126,
      "count": 4568,
      "max": [
        3.1426000595092773,
        2.0303750038146973,
        0.15257999300956726
      ],
      "min": [
        -3.1455700397491455,
        -5.212331771850586,
        -1.2402650117874146
      ],
      "type": "VEC3"
    },
    {
      "bufferView": 2,
      "byteOffset": 141240,
      "componentType": 5126,
      "count": 4568,
      "max": [
        0.9998125433921814,
        0.9944190979003906,
        0.9955591559410095
      ],
      "min": [
        -0.9998125433921814,
        -0.9768321514129639,
        -0.9809187054634094
      ],
      "type": "VEC3"
    },
    {
      "bufferView": 3,
      "byteOffset": 57616,
      "componentType": 5126,
      "count": 4568,
      "max": [
        0.9999969601631165,
        0.9312229156494141,
        0.999336838722229,
        1.0
      ],
      "min": [
        -0.9999969601631165,
        -0.9811491370201111,
        -0.9993784427642822,
        -1.0
      ],
      "type": "VEC4"
    },
    {
      "bufferView": 1,
      "byteOffset": 28808,
      "componentType": 5126,
      "count": 4568,
      "max": [
        1.0,
        0.9991999864578247
      ],
      "min": [
        0.0,
        0.0
      ],
      "type": "VEC2"
    },
    {
      "bufferView": 0,
      "byteOffset": 33264,
      "componentType": 5125,
      "count": 12546,
      "type": "SCALAR"
    }
  ],
  "asset": {
    "extras": {
      "author": "Léonard_Doye Alias Leoskateman (https://sketchfab.com/leoskateman)",
      "license": "CC-BY-4.0 (http://creativecommons.org/licenses/by/4.0/)",
      "source": "https://sketchfab.com/3d-models/textured-x-wing-low-poly-32c242b812e549b2aa632373fd994e95",
      "title": "Textured X-wing (Low Poly)"
    },
    "generator": "Sketchfab-12.68.0",
    "version": "2.0"
  },
  "bufferViews": [
    {
      "buffer": 0,
      "byteLength": 83448,
      "name": "floatBufferViews",
      "target": 34963
    },
    {
      "buffer": 0,
      "byteLength": 65352,
      "byteOffset": 83448,
      "byteStride": 8,
      "name": "floatBufferViews",
      "target": 34962
    },
    {
      "buffer": 0,
      "byteLength": 196056,
      "byteOffset": 148800,
      "byteStride": 12,
      "name": "floatBufferViews",
      "target": 34962
    },
    {
      "buffer": 0,
      "byteLength": 130704,
      "byteOffset": 344856,
      "byteStride": 16,
      "name": "floatBufferViews",
      "target": 34962
    }
  ],
  "buffers": [
    {
      "byteLength": 475560,
      "uri": "scene.bin"
    }
  ],
  "images": [
    {
      "uri": "textures/Scene_-_Root_baseColor.png"
    },
    {
      "uri": "textures/Scene_-_Root_metallicRoughness.png"
    },
    {
      "uri": "textures/Scene_-_Root_normal.png"
    }
  ],
  "materials": [
    {
      "alphaMode": "BLEND",
      "doubleSided": true,
      "name": "Scene_-_Root",
      "normalTexture": {
        "index": 2
      },
      "pbrMetallicRoughness": {
        "baseColorTexture": {
          "index": 0
        },
        "metallicFactor": 0.0,
        "metallicRoughnessTexture": {
          "index": 1
        }
      }
    }
  ],
  "meshes": [
    {
      "name": "Object_0",
      "primitives": [
        {
          "attributes": {
            "NORMAL": 1,
            "POSITION": 0,
            "TANGENT": 2,
            "TEXCOORD_0": 3
          },
          "indices": 4,
          "material": 0,
          "mode": 4
        }
      ]
    },
    {
      "name": "Object_1",
      "primitives": [
        {
          "attributes": {
            "NORMAL": 6,
            "POSITION": 5,
            "TANGENT": 7,
            "TEXCOORD_0": 8
          },
          "indices": 9,
          "material": 0,
          "mode": 4
        }
      ]
    }
  ],
  "nodes": [
    {
      "children": [
        1
      ],
      "matrix": [
        1.0,
        0.0,
        0.0,
        0.0,
        0.0,
        2.220446049250313e-16,
        -1.0,
        0.0,
        0.0,
        1.0,
        2.220446049250313e-16,
        0.0,
        0.0,
        0.0,
        0.0,
        1.0
      ],
      "name": "Sketchfab_model"
    },
    {
      "children": [
        2,
        3
      ],
      "name": "b80e773d3c324451aec8c45857ef2db6.obj.cleaner.materialmerger.gles"
    },
    {
      "mesh": 0,
      "name": "Object_2"
    },
    {
      "mesh": 1,
      "name": "Object_3"
    }
  ],
  "samplers": [
    {
      "magFilter": 9729,
      "minFilter": 9987,
      "wrapS": 10497,
      "wrapT": 10497
    }
  ],
  "scene": 0,
  "scenes": [
    {
      "name": "Sketchfab_Scene",
      "nodes": [
        0
      ]
    }
  ],
  "textures": [
    {
      "sampler": 0,
      "source": 0
    },
    {
      "sampler": 0,
      "source": 1
    },
    {
      "sampler": 0,
      "source": 2
    }
  ]
}
